+15_ID_stride6.mot
nRows=6
nColumns=38

name +15_ID_stride6.mot
datacolumns 38
datarows 6
range 2.7100000000 2.7350000000
endheader
time	pelvis_tilt_moment	pelvis_list_moment	pelvis_rotation_moment	pelvis_tx_force	pelvis_ty_force	pelvis_tz_force	hip_flexion_r_moment	hip_adduction_r_moment	hip_rotation_r_moment	knee_angle_r_moment	ankle_angle_r_moment	subtalar_angle_r_moment	mtp_angle_r_moment	hip_flexion_l_moment	hip_adduction_l_moment	hip_rotation_l_moment	knee_angle_l_moment	ankle_angle_l_moment	subtalar_angle_l_moment	mtp_angle_l_moment	lumbar_extension_moment	lumbar_bending_moment	lumbar_rotation_moment	arm_flex_r_moment	arm_add_r_moment	arm_rot_r_moment	elbow_flex_r_moment	pro_sup_r_moment	wrist_flex_r_moment	wrist_dev_r_moment	arm_flex_l_moment	arm_add_l_moment	arm_rot_l_moment	elbow_flex_l_moment	pro_sup_l_moment	wrist_flex_l_moment	wrist_dev_l_moment
        2.7100000000	        7.6049499181	      -44.6714100546	       36.7605280300	      -30.3308852280	      428.9622535026	      189.4954650200	       76.2789068744	      -16.3607250094	        4.9539824961	       32.9676194389	        4.3522001925	       -0.8343191818	        0.2047313495	      -89.0387483096	        7.2021933663	       -7.0447910288	      -37.5188117870	        4.6644375996	       -3.4606357647	        0.1881522384	       11.8904344033	        4.8852884845	       10.9072408682	       -1.2672247567	        1.7953867798	        1.7027729770	        1.2266095881	        0.0234224770	        0.1994638044	       -0.0382130846	       -3.7033094366	       -0.6636249982	       -0.5705213309	        1.0762271232	       -0.0456230081	       -0.0470204905	       -0.0822464262	
        2.7150000000	      -25.8380747685	      -11.9342648870	       38.7273544137	       -5.2579045258	      430.1388501722	      157.0837743357	       70.1005734251	      -13.1009421077	        4.7252423611	       31.0514350777	        4.3403933936	       -0.7767972775	        0.2174725224	      -57.0617691367	      -18.2422043079	       -0.6382587326	      -14.6455910612	        5.2699651699	       -1.4962543226	        0.2329453471	       11.8836856358	       14.1450183601	       13.3867818013	       -2.1157425347	        1.2796964830	        1.6870301181	        1.2125938227	        0.0240620994	        0.2085321351	       -0.0230932607	       -5.1672642367	       -0.1479516472	       -0.3285802410	        1.0379296486	       -0.0415244591	       -0.0344377655	       -0.0651684030	
        2.7200000000	      -56.1161515286	       27.8238849959	       40.3266606876	        7.7842887647	      368.2123197122	       80.1190967439	       70.1048363834	       -8.8215719108	        3.9971508415	       29.8896020846	        4.3417428452	       -0.7014145072	        0.2262665525	      -27.3321335833	      -46.1283038150	        3.6128577392	        8.0900813611	        2.6996043380	        0.3291040315	        0.2649356684	       10.4255003111	       22.1657373620	       14.0727583068	       -2.4749729429	        0.6783756039	        1.5205290322	        1.2207157165	        0.0198266273	        0.1983806008	       -0.0218773668	       -5.7330487179	        0.4589653984	       -0.0366460943	        1.0460589511	       -0.0356049883	       -0.0140593674	       -0.0547697868	
        2.7250000000	      -75.7586624618	       59.3759706735	       41.9287605175	        7.6575560410	      225.7392338236	      -22.7801984487	       72.3803692756	       -3.7424814980	        2.7896566512	       29.7086363713	        4.3408749936	       -0.6105153711	        0.2302665662	      -18.0486971160	      -70.4196384284	        4.0499429078	       24.8505678342	       -5.4835621974	        2.2929699047	        0.2748008657	        6.9646486958	       27.3136104945	       13.8906638525	       -2.4521004125	        0.1515643737	        1.2446319680	        1.2292816128	        0.0120754925	        0.1764188367	       -0.0238532080	       -5.6815007008	        0.9810084221	        0.2127512146	        1.0653519655	       -0.0297841290	        0.0057997507	       -0.0502590096	
        2.7300000000	      -79.8502987220	       67.5440956618	       44.1747380840	       -1.8131569739	       42.5407645889	     -111.2970190993	       77.3716837259	        1.8072246619	        1.3105699149	       29.8037663372	        4.3240805085	       -0.5075547482	        0.2305201875	      -21.5242007640	      -83.0013730886	        1.7715103550	       29.8893034761	      -20.7871729631	        3.7221007284	        0.2723131643	        2.9485826740	       28.5963977190	       13.0458756235	       -2.1857771045	       -0.0831660915	        1.0315990018	        1.2388124485	        0.0056021170	        0.1555211292	       -0.0298826157	       -5.2259120629	        1.1859299879	        0.3070791008	        1.0933955758	       -0.0274439085	        0.0158001100	       -0.0500030252	
        2.7350000000	      -70.4731150010	       58.2886933530	       48.0731815072	      -18.7851574867	     -136.2600781298	     -151.0496230750	       80.2485741042	        7.4611181783	       -0.2371905388	       30.0745084522	        4.2467353795	       -0.3974348671	        0.2262596098	      -50.9358166856	      -85.6654205024	       -7.1807851571	       29.6681840745	      -41.7894151535	        4.1245493346	        0.2466710376	        0.8581938389	       27.7659087185	       12.1468395684	       -1.8553312128	       -0.1115225385	        0.9512367850	        1.2738265336	        0.0016219181	        0.1463961291	       -0.0374668204	       -4.6655926000	        1.1970787748	        0.3108682664	        1.1503442885	       -0.0274267806	        0.0178965897	       -0.0560148469	
